<svg width="279" height="280" viewBox="0 0 279 280" fill="none" xmlns="http://www.w3.org/2000/svg">
<g clip-path="url(#clip0_15192_91)">
<path d="M273.609 127.404L152.048 5.84374C145.052 -1.15234 133.687 -1.15234 126.691 5.84374L101.456 31.0785L133.473 63.0955C140.928 60.5903 149.451 62.2706 155.378 68.1974C161.335 74.1547 163.016 82.77 160.449 90.2549L191.306 121.111C198.76 118.545 207.375 120.194 213.363 126.182C221.703 134.523 221.703 148.026 213.363 156.366C205.023 164.707 191.519 164.707 183.179 156.366C176.916 150.103 175.358 140.877 178.535 133.148L149.757 104.369V180.104C151.804 181.112 153.698 182.456 155.409 184.137C163.749 192.477 163.749 205.98 155.409 214.321C147.068 222.661 133.565 222.661 125.225 214.321C116.884 205.98 116.884 192.477 125.225 184.137C127.272 182.09 129.655 180.532 132.221 179.493V103.056C129.685 102.017 127.302 100.459 125.225 98.4119C118.901 92.1185 117.404 82.8311 120.642 75.0713L89.0223 43.482L5.68041 126.854C-1.31567 133.851 -1.31567 145.215 5.68041 152.211L127.241 273.772C134.237 280.768 145.602 280.768 152.598 273.772L273.609 152.761C280.605 145.765 280.605 134.4 273.609 127.404Z" fill="white"/>
</g>
<defs>
<clipPath id="clip0_15192_91">
<rect width="278.438" height="278.438" fill="white" transform="translate(0.418701 0.583984)"/>
</clipPath>
</defs>
</svg>
