<svg width="273" height="274" viewBox="0 0 273 274" fill="none" xmlns="http://www.w3.org/2000/svg">
<g clip-path="url(#clip0_15192_52)">
<path fill-rule="evenodd" clip-rule="evenodd" d="M-0.00976562 0.358398H272.691V273.06H-0.00976562V0.358398ZM71.6978 228.244L92.5658 215.61C96.5924 222.747 100.257 228.787 109.034 228.787C117.46 228.787 122.765 225.495 122.765 212.68V125.544H148.395V213.043C148.395 239.588 132.832 251.668 110.132 251.668C89.6364 251.679 77.7377 241.058 71.6978 228.244ZM183.184 213.418L162.316 225.498C169.826 240.326 185.198 251.681 208.995 251.681C233.347 251.681 251.466 239.047 251.466 215.985C251.466 194.574 239.205 185.05 217.421 175.719L211.019 172.971C200.037 168.209 195.275 165.099 195.275 157.408C195.275 151.187 200.026 146.425 207.536 146.425C214.854 146.425 219.616 149.535 224.004 157.408L243.956 144.593C235.53 129.765 223.813 124.087 207.525 124.087C184.644 124.087 169.997 138.734 169.997 157.951C169.997 178.819 182.258 188.704 200.75 196.576L207.152 199.325C218.87 204.448 225.826 207.559 225.826 216.347C225.826 223.676 219.062 228.981 208.441 228.981C195.818 228.981 188.681 222.387 183.184 213.418Z" fill="white"/>
</g>
<defs>
<clipPath id="clip0_15192_52">
<rect width="272.702" height="272.702" fill="white" transform="translate(-0.00976562 0.358398)"/>
</clipPath>
</defs>
</svg>
