<svg width="189" height="265" viewBox="0 0 189 265" fill="none" xmlns="http://www.w3.org/2000/svg">
<path d="M19.1772 0.800781H30.8894V11.1737H41.685V0.800781H53.3972V32.1924H41.685V21.7285H30.9913V32.1924H19.1772V0.800781ZM68.8776 11.2647H58.5404V0.800781H90.978V11.2647H80.5898V32.1924H68.8776V11.2647ZM96.1212 0.800781H108.394L115.93 11.8561L123.467 0.800781H135.739V32.1924H124.027V16.6331L115.828 27.9159L107.63 16.6331V32.1924H96.1212V0.800781ZM141.544 0.800781H153.256V21.8195H169.857V32.1924H141.544" fill="white"/>
<path fill-rule="evenodd" clip-rule="evenodd" d="M17.4744 243.217L0.342285 51.0273H188.692L171.56 243.113L94.3614 264.49L17.4744 243.217ZM38.0122 88.6973H94.5171H151.022L148.937 113.088H94.5171L94.5171 113.069H62.6959L64.7777 138.031H94.5171L94.5171 138.069H146.901L140.694 212.96L94.5171 226.82L48.3219 212.863L45.1497 174.588H67.7516L69.3377 194.075L94.5171 201.375L94.5171 201.463L119.691 194.157L122.323 162.46H94.5171L94.5171 162.349H44.1584L38.0122 88.6973Z" fill="white"/>
</svg>
