<svg width="360" height="183" viewBox="0 0 360 183" fill="none" xmlns="http://www.w3.org/2000/svg">
<path fill-rule="evenodd" clip-rule="evenodd" d="M359.479 91.8372C359.479 142.028 279.154 182.739 180.091 182.739C81.0069 182.739 0.702148 142.028 0.702148 91.8372C0.702148 41.6467 81.0269 0.935547 180.091 0.935547C279.154 0.935547 359.479 41.6267 359.479 91.8372ZM118.742 68.4484C116.028 65.435 110.6 63.9382 102.457 63.9382H87.7695L79.7669 105.128H92.7985C101.44 105.128 107.886 103.492 112.116 100.239C116.347 96.9861 119.201 91.558 120.678 83.9346C122.095 76.6106 121.456 71.4618 118.742 68.4484ZM71.6446 146.817H50.2114L69.3497 48.4121H110.54C122.953 48.4121 131.993 51.665 137.681 58.1708C143.368 64.6766 145.084 73.7568 142.809 85.4313C141.891 90.2209 140.295 94.6312 138.08 98.6026C135.865 102.594 132.951 106.246 129.359 109.539C125.088 113.55 120.318 116.404 115.09 118.1C109.861 119.796 103.196 120.654 95.0935 120.654H76.7336L71.6446 146.817ZM158.576 22.249H179.85L174.761 48.4119H193.7C205.614 48.4119 213.836 50.4874 218.366 54.6583C222.896 58.8092 224.253 65.5545 222.437 74.8742L213.536 120.674H191.924L200.385 77.1293C201.343 72.1801 201.004 68.8074 199.327 66.9914C197.651 65.1953 194.099 64.2973 188.651 64.2973H171.648L160.692 120.674H139.458L158.576 22.249ZM286.06 68.4484C283.346 65.435 277.918 63.9382 269.775 63.9382H255.087L247.085 105.128H260.116C268.758 105.128 275.203 103.492 279.434 100.239C283.665 96.9861 286.519 91.558 287.996 83.9346C289.412 76.6106 288.774 71.4618 286.06 68.4484ZM238.983 146.817H217.549L236.648 48.4121H277.878C290.291 48.4121 299.331 51.665 305.018 58.1708C310.706 64.6766 312.422 73.7568 310.147 85.4313C309.229 90.2209 307.633 94.6312 305.418 98.6026C303.202 102.594 300.289 106.246 296.697 109.539C292.426 113.55 287.656 116.404 282.428 118.1C277.199 119.796 270.534 120.654 262.431 120.654H244.071L238.983 146.817Z" fill="white"/>
</svg>
