<svg width="243" height="239" viewBox="0 0 243 239" fill="none" xmlns="http://www.w3.org/2000/svg">
<path fill-rule="evenodd" clip-rule="evenodd" d="M223.63 184.78C210.448 184.451 200.221 185.77 191.65 189.398C189.182 190.392 185.221 190.392 184.896 193.521C186.215 194.833 186.374 196.979 187.531 198.797C189.507 202.096 192.973 206.541 196.102 208.85C199.567 211.491 203.029 214.125 206.65 216.434C213.078 220.388 220.33 222.697 226.593 226.653C230.221 228.963 233.845 231.929 237.473 234.405C239.283 235.724 240.44 237.87 242.749 238.69V238.191C241.596 236.714 241.263 234.571 240.115 232.916C238.463 231.272 236.815 229.783 235.164 228.139C230.387 221.71 224.45 216.102 218.018 211.491C212.742 207.863 201.204 202.92 199.061 196.82L198.736 196.488C202.357 196.155 206.646 194.836 210.108 193.846C215.716 192.368 220.822 192.694 226.589 191.212C229.23 190.551 231.865 189.727 234.506 188.903V187.421C231.54 184.455 229.397 180.498 226.267 177.698C217.862 170.445 208.626 163.355 199.065 157.422C193.955 154.127 187.361 151.98 181.926 149.183C179.942 148.193 176.65 147.698 175.498 146.05C172.523 142.426 170.879 137.645 168.737 133.356C163.96 124.29 159.341 114.237 155.222 104.676C152.255 98.2471 150.438 91.8186 146.817 85.8852C129.837 57.8624 111.372 40.8824 83.0202 24.235C76.9243 20.7732 69.672 19.288 61.9209 17.4777C57.8015 17.3115 53.6821 16.9826 49.5591 16.8164C46.9175 15.6637 44.2833 12.5308 41.9742 11.0456C32.5791 5.11218 8.34678 -7.74472 1.41958 9.23155C-3.03231 19.9456 8.01427 30.4935 11.8048 35.9355C14.6127 39.726 18.2333 44.0117 20.2172 48.2973C21.3662 51.0977 21.695 54.0681 22.8514 57.0348C25.4856 64.2871 27.9609 72.3634 31.4227 79.1243C33.233 82.5861 35.2096 86.2141 37.5187 89.347C38.8376 91.161 41.1466 91.9849 41.638 94.9516C39.3289 98.2508 39.1701 103.194 37.8511 107.317C31.9141 125.945 34.2231 149.021 42.6281 162.702C45.2697 166.821 51.5319 175.887 59.9406 172.425C67.3592 169.459 65.7077 160.064 67.8506 151.821C68.3493 149.845 68.0169 148.526 69.0033 147.207V147.536C71.3124 152.15 73.6214 156.602 75.7642 161.216C80.8737 169.293 89.7775 177.701 97.1961 183.306C101.149 186.272 104.282 191.386 109.225 193.196V192.697H108.9C107.91 191.219 106.425 190.558 105.106 189.402C102.139 186.435 98.8438 182.807 96.5347 179.512C89.6149 170.283 83.519 160.06 78.077 149.512C75.4354 144.403 73.1263 138.798 70.9909 133.689C69.9934 131.708 69.9934 128.742 68.3493 127.755C65.874 131.379 62.2534 134.516 60.432 138.964C57.2991 146.05 56.9739 154.788 55.8212 163.854C55.1562 164.02 55.4888 163.854 55.1562 164.183C49.8879 162.868 48.0702 157.426 46.0936 152.811C41.1504 141.107 40.3227 122.317 44.6084 108.799C45.7611 105.337 50.7118 94.4565 48.7352 91.161C47.7377 88.0281 44.4496 86.2178 42.6319 83.7424C40.489 80.6095 38.1873 76.6564 36.7021 73.1946C32.749 63.962 30.7724 53.743 26.4831 44.5104C24.4992 40.2248 21.0411 35.7729 18.237 31.8198C15.1041 27.3679 11.6497 24.235 9.17435 18.9629C8.35047 17.1489 7.1978 14.1822 8.51674 12.2056C8.84186 10.8867 9.50686 10.3916 10.8184 10.0628C12.9612 8.24882 19.0646 10.5579 21.2074 11.5443C27.3033 14.0159 32.4128 16.325 37.5223 19.7831C39.8314 21.4308 42.3067 24.5638 45.2734 25.3913H48.7389C54.0146 26.544 59.9443 25.7202 64.8876 27.2017C73.6251 30.0058 81.535 34.1252 88.6285 38.577C110.219 52.2578 128.027 71.7094 140.056 94.9516C142.033 98.7421 142.857 102.204 144.674 106.161C148.14 114.241 152.425 122.479 155.88 130.393C159.345 138.14 162.641 146.054 167.584 152.482C170.059 155.944 179.946 157.755 184.398 159.569C187.697 161.05 192.803 162.373 195.777 164.183C201.378 167.645 206.982 171.602 212.258 175.392C214.892 177.365 223.138 181.484 223.63 184.78Z" fill="white"/>
<path fill-rule="evenodd" clip-rule="evenodd" d="M55.4925 41.5361C52.6921 41.5361 50.7156 41.865 48.739 42.36V42.6888H49.0641C50.3831 45.3267 52.6921 47.1407 54.3399 49.4461C55.6588 52.084 56.8152 54.7218 58.1342 57.3597L58.4593 57.0309C60.7683 55.3832 61.9247 52.7453 61.9247 48.7885C60.9346 47.6358 60.772 46.4794 59.9481 45.3267C58.958 43.679 56.8152 42.8551 55.4925 41.5361Z" fill="white"/>
</svg>
